<svg width="105" height="45" viewBox="0 0 96 41" fill="none" xmlns="http://www.w3.org/2000/svg" style="
    position: absolute;
    right: 0;
    top: 0;
">
							<path d="M40.6457 22.3929H41.3125C41.846 22.3929 42.2461 22.2595 42.5128 22.1262C42.9129 21.9928 43.1797 21.7261 43.4464 21.4593C43.7131 21.1926 43.8465 20.9258 43.9799 20.5257C44.1133 20.1256 44.2466 19.7255 44.2466 19.3254C44.2466 18.9253 44.1133 18.5252 43.9799 18.1251C43.8465 17.725 43.5798 17.4582 43.4464 17.1915C43.1797 16.9248 42.9129 16.7914 42.5128 16.5247C42.1127 16.3913 41.7126 16.2579 41.3125 16.2579H40.6457V22.3929ZM37.9783 14.2574H41.9793C42.6462 14.2574 43.313 14.3908 43.9799 14.6575C44.6467 14.9242 45.1802 15.3243 45.5803 15.8578C45.9804 16.3913 46.3805 16.9248 46.6473 17.4582C46.914 18.1251 47.0474 18.7919 47.0474 19.4588C47.0474 20.1256 46.914 20.7925 46.6473 21.4593C46.3805 22.1262 45.9804 22.6596 45.5803 23.1931C45.1802 23.7266 44.5134 23.9933 43.9799 24.3934C43.313 24.6602 42.6462 24.7935 41.9793 24.7935H37.9783V14.2574Z" fill="white"></path>
							<path d="M52.9164 20.1257C52.783 19.7256 52.6496 19.4589 52.3829 19.3255C52.1162 19.0588 51.8494 19.0588 51.4493 19.0588C51.0492 19.0588 50.7825 19.1921 50.5157 19.3255C50.249 19.5922 50.1156 19.859 50.1156 20.1257H52.9164ZM49.9823 21.5928C49.9823 22.6597 50.5157 23.1932 51.4493 23.1932C51.9828 23.1932 52.3829 22.9265 52.6496 22.5264H55.0503C54.5168 24.1268 53.3165 24.927 51.4493 24.927C50.9158 24.927 50.249 24.7936 49.8489 24.6603C49.3154 24.5269 48.9153 24.2602 48.5152 23.86C48.1151 23.5933 47.8483 23.1932 47.715 22.6597C47.5816 22.2596 47.4482 21.7261 47.4482 21.0593C47.4482 20.5258 47.5816 19.9923 47.715 19.4589C47.8483 18.9254 48.1151 18.5253 48.5152 18.2585C48.9153 17.9918 49.3154 17.7251 49.7155 17.4583C50.249 17.325 50.7825 17.1916 51.3159 17.1916C51.8494 17.1916 52.5163 17.325 52.9164 17.4583C53.4499 17.5917 53.85 17.8584 54.1167 18.2585C54.3834 18.6586 54.6502 19.0588 54.9169 19.4589C55.0503 19.9923 55.1837 20.5258 55.1837 21.1927V21.4594H49.9823V21.5928Z" fill="white"></path>
							<path d="M58.6514 13.1901H56.1174V24.6599H58.6514V13.1901Z" fill="white"></path>
							<path d="M62.6537 24.7939H60.1197V17.7253H62.6537V24.7939ZM59.9863 14.9246C59.9863 14.7912 59.9863 14.5245 60.1197 14.3911C60.2531 14.2577 60.2531 14.1244 60.3864 13.991C60.5198 13.8576 60.6532 13.7243 60.7865 13.7243C60.9199 13.5909 61.1867 13.5909 61.32 13.5909C61.4534 13.5909 61.7201 13.5909 61.8535 13.7243C61.9869 13.8576 62.1202 13.8576 62.2536 13.991C62.387 14.1244 62.5203 14.2577 62.5203 14.3911C62.6537 14.5245 62.6537 14.7912 62.6537 14.9246C62.6537 15.0579 62.6537 15.3247 62.5203 15.458C62.387 15.5914 62.387 15.7248 62.2536 15.8582C62.1202 15.9915 61.9869 16.1249 61.8535 16.1249C61.7201 16.2583 61.4534 16.2583 61.32 16.2583C61.1867 16.2583 60.9199 16.2583 60.7865 16.1249C60.6532 15.9915 60.5198 15.9915 60.3864 15.8582C60.2531 15.7248 60.1197 15.5914 60.1197 15.458C59.9863 15.3247 59.9863 15.0579 59.9863 14.9246Z" fill="white"></path>
							<path d="M66.1198 17.5924L67.8536 21.3267L69.5874 17.5924H72.2548L68.6539 24.7943H66.9201L63.3191 17.5924H66.1198Z" fill="white"></path>
							<path d="M77.4554 20.1251C77.3221 19.725 77.1887 19.4583 76.922 19.3249C76.6552 19.0581 76.3885 19.0581 75.9884 19.0581C75.5883 19.0581 75.3215 19.1915 75.0548 19.3249C74.7881 19.5916 74.6547 19.8584 74.6547 20.1251H77.4554ZM74.5213 21.5922C74.5213 22.6591 75.0548 23.1926 75.9884 23.1926C76.5219 23.1926 76.922 22.9259 77.1887 22.5257H79.5893C79.0559 24.1262 77.8555 24.9264 75.9884 24.9264C75.4549 24.9264 74.7881 24.793 74.3879 24.6597C73.8545 24.5263 73.4544 24.2595 73.0543 23.8594C72.6541 23.5927 72.3874 23.1926 72.254 22.6591C72.1207 22.259 71.9873 21.7255 71.9873 21.0587C71.9873 20.5252 72.1207 19.9917 72.254 19.4583C72.3874 18.9248 72.6541 18.5247 73.0543 18.2579C73.4544 17.9912 73.8545 17.7245 74.2546 17.4577C74.7881 17.3243 75.3215 17.191 75.855 17.191C76.3885 17.191 77.0553 17.3243 77.4554 17.4577C77.9889 17.5911 78.389 17.8578 78.6558 18.2579C78.9225 18.658 79.1892 19.0581 79.456 19.4583C79.5894 19.9917 79.7227 20.5252 79.7227 21.1921V21.4588H74.5213V21.5922Z" fill="white"></path>
							<path d="M80.6581 17.5919H83.1921V18.7922C83.4588 18.3921 83.7256 17.992 84.1257 17.8587C84.5258 17.5919 84.9259 17.4586 85.4594 17.4586H85.7261C85.8595 17.4586 85.8595 17.4586 85.9929 17.4586V19.8592C85.5927 19.7258 85.326 19.5925 84.9259 19.5925C84.3924 19.5925 83.8589 19.7258 83.5922 20.1259C83.3255 20.526 83.1921 20.9262 83.1921 21.593V24.6605H80.6581V17.5919Z" fill="white"></path>
							<path d="M89.8613 23.7274L86.3937 17.5924H89.3278L91.195 21.3267L93.0621 17.5924H95.8629L90.2614 28.2619H87.4606L89.8613 23.7274Z" fill="white"></path>
							<path d="M5.96997 17.3249L7.17029 20.9258H4.76965L5.96997 17.3249ZM4.50291 14.2574L0.501831 24.6602H3.43595L4.1028 22.793H7.97051L8.63735 24.6602H11.5715L7.5704 14.2574H4.50291Z" fill="white"></path>
							<path d="M14.373 17.5924V21.5935C14.373 22.5271 14.7731 22.9272 15.7067 22.9272C16.5069 22.9272 17.0404 22.5271 17.0404 21.5935V17.5924H19.5744V22.127C19.5744 23.0605 19.3076 23.8608 18.6408 24.2609C17.974 24.7943 17.0404 24.9277 15.84 24.9277C14.6397 24.9277 13.7061 24.661 13.0393 24.2609C12.3725 23.7274 12.1057 23.0605 12.1057 22.127V17.5924H14.373Z" fill="white"></path>
							<path d="M23.8445 19.725V24.7931H21.3105V19.725H20.5103V17.5911H21.3105V15.4572H23.8445V17.5911H25.3115V19.725H23.8445Z" fill="white"></path>
							<path d="M28.3781 21.1928C28.3781 21.4595 28.3781 21.5929 28.5115 21.8596C28.6449 21.993 28.7782 22.2597 28.9116 22.3931C29.045 22.5265 29.1783 22.6598 29.4451 22.7932C29.5785 22.9266 29.8452 22.9266 30.1119 22.9266C30.3787 22.9266 30.512 22.9266 30.7788 22.7932C30.9121 22.6598 31.1789 22.6598 31.3123 22.3931C31.4456 22.2597 31.579 22.1264 31.7124 21.8596C31.8457 21.7263 31.8457 21.4595 31.8457 21.1928C31.8457 20.926 31.8457 20.7927 31.7124 20.5259C31.579 20.3926 31.4456 20.1258 31.3123 19.9925C31.1789 19.8591 31.0455 19.7257 30.7788 19.5924C30.512 19.5924 30.2453 19.5924 30.1119 19.5924C29.8452 19.5924 29.7118 19.5924 29.4451 19.7257C29.3117 19.8591 29.045 19.8591 28.9116 20.1258C28.7782 20.2592 28.6449 20.3926 28.5115 20.6593C28.5115 20.6593 28.3781 20.926 28.3781 21.1928ZM25.8441 21.0594C25.8441 20.5259 25.9775 19.9925 26.1109 19.5924C26.3776 19.1922 26.6443 18.7921 27.0444 18.392C27.4445 17.9919 27.8447 17.7252 28.3781 17.5918C28.9116 17.4584 29.4451 17.3251 30.1119 17.3251C30.7788 17.3251 31.3123 17.4584 31.8457 17.5918C32.3792 17.7252 32.7793 17.9919 33.1794 18.392C33.5795 18.7921 33.8463 19.1922 34.113 19.5924C34.3797 19.9925 34.3797 20.5259 34.3797 21.1928C34.3797 21.7263 34.2464 22.2597 34.113 22.7932C33.8463 23.3267 33.5795 23.7268 33.1794 23.9935C32.7793 24.3936 32.3792 24.527 31.8457 24.7937C31.3123 24.9271 30.7788 25.0605 30.1119 25.0605C29.4451 25.0605 28.9116 24.9271 28.3781 24.7937C27.8447 24.6604 27.4445 24.3936 27.0444 23.9935C26.6443 23.5934 26.3776 23.1933 26.1109 22.7932C25.8441 22.2597 25.8441 21.7263 25.8441 21.0594Z" fill="white"></path>
							<path d="M11.1719 30.5287L9.7048 32.796C14.9062 36.2636 21.708 36.6637 27.3095 33.7296C29.4434 32.6626 31.3106 31.0622 32.911 29.195C33.0444 29.0617 33.1778 29.195 33.1778 29.195C33.1778 29.195 35.0449 32.1292 35.445 33.0627C35.5784 33.1961 35.5784 33.3295 35.445 33.4629C33.7113 35.33 31.7107 36.7971 29.4434 37.864C22.3749 41.465 13.8392 41.0649 7.17078 36.6637L5.70372 38.931C5.30361 39.4645 4.5034 39.7312 3.96992 39.3311C3.70318 39.1977 3.56981 38.931 3.43644 38.7976L0.102215 30.6621C-0.164523 29.9953 0.102215 29.3284 0.769061 29.0617C0.90243 29.0617 1.0358 28.9283 1.16917 28.9283L9.97153 28.6616C10.6384 28.6616 11.3052 29.195 11.3052 29.8619C11.3052 30.1286 11.3052 30.262 11.1719 30.5287Z" fill="white"></path>
							<path d="M25.4412 9.98935L26.9083 7.85544C21.7069 4.25448 15.0384 3.85437 9.43691 6.65512C7.303 7.72208 5.30246 9.18914 3.70203 11.0563C3.56867 11.1897 3.4353 11.0563 3.4353 11.0563C3.4353 11.0563 1.7015 7.98881 1.16802 7.1886C1.03465 7.05523 1.03465 6.92186 1.16802 6.78849C3.03519 4.92132 5.03573 3.45426 7.303 2.25394C14.5049 -1.21366 22.9072 -0.680183 29.5757 3.85437L31.0427 1.72046C31.4428 1.18699 32.243 1.05362 32.7765 1.32036C33.0433 1.45372 33.1766 1.72046 33.31 1.85383L36.5109 10.1227C36.7776 10.7896 36.3775 11.4564 35.844 11.7232C35.7106 11.7232 35.5773 11.8565 35.4439 11.8565H26.6415C25.9747 11.8565 25.4412 11.323 25.3078 10.6562C25.1745 10.5228 25.3078 10.2561 25.4412 9.98935Z" fill="white"></path>
						</svg>