<svg width="15" height="16" viewBox="0 0 15 16" fill="none" xmlns="http://www.w3.org/2000/svg">
    <mask id="mask0" mask-type="alpha" maskUnits="userSpaceOnUse" x="0" y="0" width="15" height="16">
        <path fill-rule="evenodd" clip-rule="evenodd" d="M0.0449219 0.74707H14.9991V15.7501H0.0449219V0.74707Z" fill="white"/>
    </mask>
    <g mask="url(#mask0)">
        <path fill-rule="evenodd" clip-rule="evenodd" d="M2.56043 0.74707L0.00292969 0.76207L0.0119297 2.26207L1.56443 2.25307L4.03418 8.17957L3.13493 9.61807C2.50793 10.6201 3.27218 12.0001 4.45568 12.0001H13.4999V10.5001H4.45568C4.37393 10.5001 4.36193 10.4828 4.40618 10.4123L5.29118 9.00007H10.8899C11.4344 9.00007 11.9384 8.70382 12.2024 8.22682L14.9032 3.36307C15.1814 2.86507 14.8214 2.25007 14.2499 2.25007H3.18743L2.56043 0.74707ZM4.49993 12.7501C3.67118 12.7501 2.99993 13.4213 2.99993 14.2501C2.99993 15.0788 3.67118 15.7501 4.49993 15.7501C5.32868 15.7501 5.99993 15.0788 5.99993 14.2501C5.99993 13.4213 5.32868 12.7501 4.49993 12.7501ZM11.9999 12.7501C11.1712 12.7501 10.4999 13.4213 10.4999 14.2501C10.4999 15.0788 11.1712 15.7501 11.9999 15.7501C12.8287 15.7501 13.4999 15.0788 13.4999 14.2501C13.4999 13.4213 12.8287 12.7501 11.9999 12.7501Z" fill="white"/>
    </g>
</svg>