<svg width="70" height="29" viewBox="0 0 70 29" fill="none" xmlns="http://www.w3.org/2000/svg">
<path d="M29.6799 16.1161H30.1669C30.5564 16.1161 30.8486 16.0201 31.0434 15.9242C31.3355 15.8282 31.5303 15.6362 31.7251 15.4442C31.9199 15.2523 32.0172 15.0603 32.1146 14.7723C32.212 14.4844 32.3094 14.1964 32.3094 13.9085C32.3094 13.6205 32.212 13.3326 32.1146 13.0446C32.0172 12.7566 31.8225 12.5647 31.7251 12.3727C31.5303 12.1807 31.3355 12.0847 31.0434 11.8928C30.7512 11.7968 30.459 11.7008 30.1669 11.7008H29.6799V16.1161ZM27.7322 10.261H30.6538C31.1408 10.261 31.6277 10.357 32.1146 10.549C32.6016 10.7409 32.9911 11.0289 33.2833 11.4128C33.5754 11.7968 33.8676 12.1807 34.0624 12.5647C34.2572 13.0446 34.3545 13.5245 34.3545 14.0044C34.3545 14.4844 34.2572 14.9643 34.0624 15.4442C33.8676 15.9242 33.5754 16.3081 33.2833 16.692C32.9911 17.076 32.5042 17.268 32.1146 17.5559C31.6277 17.7479 31.1408 17.8439 30.6538 17.8439H27.7322V10.261Z" fill="#00AAB8"/>
<path d="M38.6403 14.4844C38.5429 14.1965 38.4455 14.0045 38.2507 13.9085C38.0559 13.7166 37.8612 13.7166 37.569 13.7166C37.2769 13.7166 37.0821 13.8125 36.8873 13.9085C36.6925 14.1005 36.5951 14.2925 36.5951 14.4844H38.6403ZM36.4977 15.5403C36.4977 16.3082 36.8873 16.6921 37.569 16.6921C37.9586 16.6921 38.2507 16.5001 38.4455 16.2122H40.1985C39.8089 17.364 38.9324 17.9399 37.569 17.9399C37.1795 17.9399 36.6925 17.8439 36.4004 17.7479C36.0108 17.652 35.7186 17.46 35.4265 17.172C35.1343 16.9801 34.9395 16.6921 34.8422 16.3082C34.7448 16.0202 34.6474 15.6363 34.6474 15.1563C34.6474 14.7724 34.7448 14.3885 34.8422 14.0045C34.9395 13.6206 35.1343 13.3326 35.4265 13.1406C35.7186 12.9487 36.0108 12.7567 36.303 12.5647C36.6925 12.4687 37.0821 12.3728 37.4716 12.3728C37.8612 12.3728 38.3481 12.4687 38.6403 12.5647C39.0298 12.6607 39.322 12.8527 39.5168 13.1406C39.7115 13.4286 39.9063 13.7166 40.1011 14.0045C40.1985 14.3885 40.2959 14.7724 40.2959 15.2523V15.4443H36.4977V15.5403Z" fill="#00AAB8"/>
<path d="M42.8278 9.49289H40.9774V17.7476H42.8278V9.49289Z" fill="#00AAB8"/>
<path d="M45.7502 17.8441H43.8999V12.7568H45.7502V17.8441ZM43.8025 10.7412C43.8025 10.6452 43.8025 10.4532 43.8999 10.3572C43.9973 10.2612 43.9973 10.1652 44.0946 10.0693C44.192 9.97327 44.2894 9.87728 44.3868 9.87728C44.4842 9.7813 44.679 9.7813 44.7764 9.7813C44.8737 9.7813 45.0685 9.7813 45.1659 9.87728C45.2633 9.97327 45.3607 9.97327 45.4581 10.0693C45.5555 10.1652 45.6528 10.2612 45.6528 10.3572C45.7502 10.4532 45.7502 10.6452 45.7502 10.7412C45.7502 10.8371 45.7502 11.0291 45.6528 11.1251C45.5555 11.2211 45.5555 11.3171 45.4581 11.413C45.3607 11.509 45.2633 11.605 45.1659 11.605C45.0685 11.701 44.8737 11.701 44.7764 11.701C44.679 11.701 44.4842 11.701 44.3868 11.605C44.2894 11.509 44.192 11.509 44.0946 11.413C43.9973 11.3171 43.8999 11.2211 43.8999 11.1251C43.8025 11.0291 43.8025 10.8371 43.8025 10.7412Z" fill="#00AAB8"/>
<path d="M48.2816 12.6612L49.5476 15.3488L50.8136 12.6612H52.7614L50.1319 17.8444H48.8659L46.2364 12.6612H48.2816Z" fill="#00AAB8"/>
<path d="M56.5588 14.4839C56.4614 14.196 56.364 14.004 56.1692 13.908C55.9745 13.716 55.7797 13.716 55.4875 13.716C55.1954 13.716 55.0006 13.812 54.8058 13.908C54.611 14.1 54.5136 14.292 54.5136 14.4839H56.5588ZM54.4163 15.5398C54.4163 16.3077 54.8058 16.6916 55.4875 16.6916C55.8771 16.6916 56.1692 16.4996 56.364 16.2117H58.117C57.7274 17.3635 56.8509 17.9394 55.4875 17.9394C55.098 17.9394 54.611 17.8434 54.3189 17.7474C53.9293 17.6515 53.6372 17.4595 53.345 17.1715C53.0528 16.9796 52.8581 16.6916 52.7607 16.3077C52.6633 16.0197 52.5659 15.6358 52.5659 15.1558C52.5659 14.7719 52.6633 14.3879 52.7607 14.004C52.8581 13.6201 53.0528 13.3321 53.345 13.1401C53.6372 12.9482 53.9293 12.7562 54.2215 12.5642C54.611 12.4682 55.0006 12.3723 55.3901 12.3723C55.7797 12.3723 56.2666 12.4682 56.5588 12.5642C56.9483 12.6602 57.2405 12.8522 57.4353 13.1401C57.63 13.4281 57.8248 13.716 58.0196 14.004C58.117 14.3879 58.2144 14.7719 58.2144 15.2518V15.4438H54.4163V15.5398Z" fill="#00AAB8"/>
<path d="M58.8974 12.6609H60.7477V13.5247C60.9425 13.2368 61.1373 12.9488 61.4294 12.8528C61.7216 12.6609 62.0138 12.5649 62.4033 12.5649H62.5981C62.6955 12.5649 62.6955 12.5649 62.7929 12.5649V14.2926C62.5007 14.1966 62.3059 14.1006 62.0138 14.1006C61.6242 14.1006 61.2347 14.1966 61.0399 14.4846C60.8451 14.7725 60.7477 15.0605 60.7477 15.5404V17.7481H58.8974V12.6609Z" fill="#00AAB8"/>
<path d="M65.6176 17.0765L63.0855 12.6612H65.228L66.5914 15.3488L67.9549 12.6612H70L65.9097 20.34H63.8646L65.6176 17.0765Z" fill="#00AAB8"/>
<path d="M4.35916 12.4687L5.23565 15.0603H3.48267L4.35916 12.4687ZM3.2879 10.261L0.366266 17.7479H2.50879L2.99573 16.4041H5.81997L6.30691 17.7479H8.44944L5.52781 10.261H3.2879Z" fill="#00AAB8"/>
<path d="M10.4953 12.6612V15.5408C10.4953 16.2127 10.7875 16.5006 11.4692 16.5006C12.0535 16.5006 12.4431 16.2127 12.4431 15.5408V12.6612H14.2934V15.9247C14.2934 16.5966 14.0987 17.1725 13.6117 17.4605C13.1248 17.8444 12.4431 17.9404 11.5666 17.9404C10.6901 17.9404 10.0084 17.7484 9.52145 17.4605C9.03451 17.0765 8.83973 16.5966 8.83973 15.9247V12.6612H10.4953Z" fill="#00AAB8"/>
<path d="M17.4114 14.196V17.8435H15.5611V14.196H14.9767V12.6603H15.5611V11.1245H17.4114V12.6603H18.4827V14.196H17.4114Z" fill="#00AAB8"/>
<path d="M20.722 15.2523C20.722 15.4443 20.722 15.5403 20.8194 15.7323C20.9168 15.8282 21.0142 16.0202 21.1116 16.1162C21.209 16.2122 21.3064 16.3082 21.5011 16.4042C21.5985 16.5001 21.7933 16.5001 21.9881 16.5001C22.1829 16.5001 22.2802 16.5001 22.475 16.4042C22.5724 16.3082 22.7672 16.3082 22.8646 16.1162C22.962 16.0202 23.0593 15.9242 23.1567 15.7323C23.2541 15.6363 23.2541 15.4443 23.2541 15.2523C23.2541 15.0604 23.2541 14.9644 23.1567 14.7724C23.0593 14.6764 22.962 14.4844 22.8646 14.3885C22.7672 14.2925 22.6698 14.1965 22.475 14.1005C22.2802 14.1005 22.0855 14.1005 21.9881 14.1005C21.7933 14.1005 21.6959 14.1005 21.5011 14.1965C21.4038 14.2925 21.209 14.2925 21.1116 14.4844C21.0142 14.5804 20.9168 14.6764 20.8194 14.8684C20.8194 14.8684 20.722 15.0604 20.722 15.2523ZM18.8717 15.1563C18.8717 14.7724 18.9691 14.3885 19.0664 14.1005C19.2612 13.8125 19.456 13.5246 19.7482 13.2366C20.0403 12.9487 20.3325 12.7567 20.722 12.6607C21.1116 12.5647 21.5011 12.4688 21.9881 12.4688C22.475 12.4688 22.8646 12.5647 23.2541 12.6607C23.6437 12.7567 23.9358 12.9487 24.228 13.2366C24.5202 13.5246 24.7149 13.8125 24.9097 14.1005C25.1045 14.3885 25.1045 14.7724 25.1045 15.2523C25.1045 15.6363 25.0071 16.0202 24.9097 16.4042C24.7149 16.7881 24.5202 17.076 24.228 17.268C23.9358 17.556 23.6437 17.652 23.2541 17.8439C22.8646 17.9399 22.475 18.0359 21.9881 18.0359C21.5011 18.0359 21.1116 17.9399 20.722 17.8439C20.3325 17.7479 20.0403 17.556 19.7482 17.268C19.456 16.9801 19.2612 16.6921 19.0664 16.4042C18.8717 16.0202 18.8717 15.6363 18.8717 15.1563Z" fill="#00AAB8"/>
<path d="M8.15781 21.9714L7.08655 23.6032C10.8847 26.0988 15.8514 26.3868 19.9417 24.2751C21.4999 23.5072 22.8633 22.3554 24.032 21.0116C24.1294 20.9156 24.2268 21.0116 24.2268 21.0116C24.2268 21.0116 25.5902 23.1233 25.8824 23.7952C25.9797 23.8911 25.9797 23.9871 25.8824 24.0831C24.6163 25.4269 23.1555 26.4828 21.4999 27.2506C16.3384 29.8422 10.1056 29.5543 5.23618 26.3868L4.16492 28.0185C3.87276 28.4025 3.28843 28.5944 2.89888 28.3065C2.7041 28.2105 2.60672 28.0185 2.50933 27.9225L0.0746386 22.0674C-0.120137 21.5875 0.0746385 21.1076 0.561577 20.9156C0.658964 20.9156 0.756352 20.8196 0.853739 20.8196L7.28132 20.6276C7.76826 20.6276 8.2552 21.0116 8.2552 21.4915C8.2552 21.6835 8.2552 21.7795 8.15781 21.9714Z" fill="#F9A11F"/>
<path d="M18.5773 7.18928L19.6486 5.65351C15.8505 3.0619 10.9811 2.77395 6.8908 4.78964C5.3326 5.55753 3.87178 6.61337 2.70313 7.95716C2.60574 8.05315 2.50836 7.95716 2.50836 7.95716C2.50836 7.95716 1.24232 5.7495 0.852765 5.17358C0.755377 5.0776 0.755377 4.98161 0.852765 4.88563C2.21619 3.54183 3.67701 2.48599 5.3326 1.62212C10.5915 -0.873498 16.727 -0.489556 21.5963 2.77395L22.6676 1.23818C22.9598 0.85424 23.5441 0.758255 23.9336 0.950225C24.1284 1.04621 24.2258 1.23818 24.3232 1.33417L26.6605 7.28526C26.8553 7.76519 26.5631 8.24512 26.1736 8.43709C26.0762 8.43709 25.9788 8.53307 25.8814 8.53307H19.4538C18.9669 8.53307 18.5773 8.14913 18.4799 7.66921C18.3825 7.57322 18.4799 7.38125 18.5773 7.18928Z" fill="#F9A11F"/>
</svg>
